<?xml version="1.0"?>
<svg width="90" height="90" xmlns="http://www.w3.org/2000/svg" xmlns:svg="http://www.w3.org/2000/svg" enable-background="new 0 0 96 96" version="1.1" xml:space="preserve">
 <style type="text/css">.st0{fill-rule:evenodd;clip-rule:evenodd;}</style>

 <g class="layer">
  <title>Layer 1</title>
  <path class="st0" d="m64.01,56.16l0,7.88c0,2.92 -8.52,5.28 -19.04,5.28c-10.52,0 -19.04,-2.36 -19.04,-5.28l0,-7.88c0,-0.14 0.07,-0.27 0.19,-0.34c0.13,-0.07 0.27,-0.07 0.4,0c5.03,3 15.13,3.37 18.45,3.37s13.41,-0.37 18.45,-3.36c0.13,-0.08 0.27,-0.08 0.39,-0.01c0.13,0.07 0.2,0.2 0.2,0.34l0,0zm-61.38,-16.43c-0.08,0.64 -0.66,1.09 -1.3,1.01c-0.64,-0.07 -1.1,-0.66 -1.02,-1.3c1.38,-11.18 6.86,-21.09 14.89,-28.18c7.93,-7.01 18.36,-11.26 29.77,-11.26c5.19,0 10.17,0.88 14.82,2.5c3.3,1.15 6.42,2.67 9.32,4.52l-0.24,-0.45c-0.3,-0.57 -0.07,-1.27 0.5,-1.57c0.57,-0.3 1.27,-0.08 1.57,0.49l2.47,4.73c0.13,0.22 0.19,0.48 0.15,0.75c-0.08,0.64 -0.67,1.09 -1.31,1l-5.35,-0.72c-0.64,-0.08 -1.08,-0.67 -1,-1.31c0.09,-0.64 0.67,-1.08 1.31,-1l0.73,0.1c-2.77,-1.77 -5.76,-3.24 -8.92,-4.34c-4.39,-1.53 -9.12,-2.36 -14.05,-2.36c-10.83,0 -20.71,4.03 -28.23,10.67c-7.61,6.72 -12.8,16.12 -14.11,26.72l0,0zm84.97,3.72c0.04,0.91 1.06,1.43 1.83,0.92c0.33,-0.23 0.52,-0.6 0.51,-1.01c-0.06,-1.6 -0.2,-3.2 -0.42,-4.78c-0.08,-0.5 -0.45,-0.89 -0.95,-0.98c-0.79,-0.14 -1.48,0.52 -1.37,1.31c0.22,1.51 0.35,3.02 0.4,4.54l0,0zm-3.59,-15.91c0.01,0.09 0.01,0.19 0.04,0.28c0.01,0.03 0.01,0.05 0.02,0.07c0.49,1.45 1.15,2.84 1.63,4.37c0.17,0.54 0.7,0.88 1.25,0.81c0.73,-0.09 1.2,-0.81 0.98,-1.51c-0.47,-1.5 -1.03,-3.05 -1.68,-4.5c-0.36,-0.82 -1.47,-0.94 -2.01,-0.22c-0.15,0.21 -0.22,0.44 -0.23,0.7l0,0zm-3.11,-5.55c0.28,0.44 0.82,0.64 1.32,0.48c0.74,-0.22 1.07,-1.1 0.65,-1.75c-0.87,-1.35 -1.8,-2.64 -2.81,-3.89c-0.53,-0.66 -1.54,-0.56 -1.94,0.18c-0.22,0.42 -0.17,0.91 0.12,1.28c0.95,1.19 1.84,2.42 2.66,3.7l0,0zm6.41,28.28c-1.31,10.61 -6.5,20 -14.11,26.72c-7.52,6.64 -17.4,10.67 -28.23,10.67c-4.93,0 -9.66,-0.83 -14.05,-2.36c-3.16,-1.1 -6.15,-2.57 -8.92,-4.34l0.73,0.1c0.64,0.08 1.22,-0.36 1.31,-1c0.08,-0.64 -0.36,-1.23 -1,-1.31l-5.35,-0.72c-0.64,-0.09 -1.23,0.36 -1.31,1c-0.04,0.27 0.02,0.53 0.15,0.75l2.47,4.73c0.3,0.57 1,0.79 1.57,0.49c0.57,-0.3 0.79,-1 0.5,-1.57l-0.24,-0.45c2.9,1.85 6.02,3.37 9.32,4.52c4.65,1.62 9.63,2.5 14.82,2.5c11.41,0 21.84,-4.25 29.77,-11.26c8.03,-7.09 13.51,-17.01 14.89,-28.18c0.08,-0.64 -0.38,-1.23 -1.02,-1.31c-0.64,-0.07 -1.22,0.38 -1.3,1.02l0,0zm-84.97,-3.72c-0.04,-0.91 -1.06,-1.43 -1.83,-0.92c-0.33,0.23 -0.53,0.6 -0.51,1.01c0.06,1.6 0.2,3.2 0.43,4.78c0.07,0.5 0.44,0.89 0.94,0.98c0.79,0.14 1.48,-0.52 1.37,-1.31c-0.22,-1.51 -0.35,-3.02 -0.4,-4.54l0,0zm3.59,15.92c-0.01,-0.1 -0.01,-0.2 -0.04,-0.29c-0.01,-0.02 -0.01,-0.05 -0.02,-0.07c-0.49,-1.45 -1.15,-2.84 -1.63,-4.37c-0.17,-0.54 -0.7,-0.88 -1.26,-0.81c-0.72,0.09 -1.19,0.81 -0.97,1.51c0.47,1.5 1.03,3.05 1.67,4.5c0.37,0.82 1.48,0.94 2.01,0.22c0.16,-0.21 0.24,-0.44 0.24,-0.69l0,0zm3.11,5.54c-0.28,-0.44 -0.82,-0.63 -1.32,-0.48c-0.74,0.22 -1.06,1.1 -0.65,1.75c0.87,1.35 1.8,2.64 2.81,3.89c0.53,0.66 1.54,0.56 1.94,-0.18c0.22,-0.42 0.17,-0.91 -0.12,-1.28c-0.95,-1.19 -1.84,-2.42 -2.66,-3.7l0,0zm35.93,-47.33c-10.52,0 -19.04,2.36 -19.04,5.28c0,2.91 8.52,5.28 19.04,5.28c10.52,0 19.04,-2.37 19.04,-5.28c0,-2.92 -8.52,-5.28 -19.04,-5.28l0,0zm19.04,9.46c0,-0.14 -0.07,-0.27 -0.2,-0.34c-0.12,-0.07 -0.27,-0.07 -0.39,0.01c-3.71,2.25 -10.58,3.77 -18.45,3.77s-14.74,-1.52 -18.45,-3.77c-0.12,-0.08 -0.27,-0.08 -0.39,-0.01c-0.13,0.07 -0.2,0.2 -0.2,0.34l0,7.93c0,2.92 8.53,5.28 19.04,5.28c10.52,0 19.04,-2.36 19.04,-5.28l0,-7.93l0,0zm-11.05,6.79c-0.69,0.09 -1.38,0.16 -2.05,0.23c-0.68,0.06 -1.38,0.11 -2.12,0.15c-0.64,0.04 -1.13,0.59 -1.1,1.23c0.04,0.65 0.59,1.14 1.23,1.1c0.71,-0.04 1.44,-0.09 2.2,-0.16c0.72,-0.07 1.44,-0.15 2.14,-0.24c0.64,-0.08 1.09,-0.67 1,-1.31c-0.08,-0.64 -0.66,-1.09 -1.3,-1l0,0zm5.18,-1.02c-0.04,0.02 -0.05,0.02 -0.26,0.07l-0.05,0.02c-0.19,0.05 -0.16,0.04 -0.22,0.06c-0.62,0.16 -1,0.79 -0.84,1.41c0.16,0.62 0.79,1 1.41,0.84l0.23,-0.06c0.02,0 0.05,-0.01 0.07,-0.01l0.28,-0.08c0.62,-0.17 0.98,-0.81 0.81,-1.43c-0.17,-0.62 -0.81,-0.99 -1.43,-0.82l0,0zm5.87,15.66l0,-8.91c0,-0.14 -0.07,-0.27 -0.2,-0.34c-0.12,-0.07 -0.26,-0.07 -0.39,0c-5.04,3 -15.13,3.37 -18.45,3.37c-3.32,0 -13.41,-0.37 -18.45,-3.36c-0.13,-0.08 -0.27,-0.08 -0.39,-0.01c-0.13,0.07 -0.2,0.2 -0.2,0.34l0,8.91c0,2.92 8.52,5.28 19.04,5.28c10.52,0 19.04,-2.37 19.04,-5.28l0,0zm-5.87,-2.79c0.62,-0.17 1.26,0.19 1.43,0.81c0.17,0.62 -0.19,1.26 -0.81,1.43l-0.28,0.08c-0.13,0.04 0.02,-0.01 -0.29,0.08c-0.63,0.15 -1.26,-0.22 -1.42,-0.84c-0.16,-0.63 0.22,-1.26 0.84,-1.42c0.13,-0.03 -0.05,0.01 0.27,-0.07l0.26,-0.07l0,0zm-5.18,1.01c0.64,-0.08 1.22,0.37 1.3,1c0.09,0.64 -0.36,1.23 -1,1.31c-0.71,0.09 -1.43,0.17 -2.17,0.24c-0.75,0.07 -1.47,0.13 -2.17,0.17c-0.64,0.03 -1.19,-0.46 -1.23,-1.1c-0.03,-0.65 0.46,-1.2 1.1,-1.23c0.73,-0.04 1.43,-0.1 2.09,-0.16c0.69,-0.06 1.38,-0.14 2.08,-0.23l0,0zm0,12.98c-0.69,0.09 -1.38,0.17 -2.05,0.23c-0.68,0.07 -1.38,0.12 -2.12,0.16c-0.64,0.03 -1.13,0.58 -1.1,1.23c0.04,0.64 0.59,1.13 1.23,1.1c0.71,-0.04 1.44,-0.1 2.2,-0.17c0.72,-0.07 1.44,-0.15 2.14,-0.24c0.64,-0.08 1.09,-0.67 1,-1.3c-0.08,-0.64 -0.66,-1.09 -1.3,-1.01l0,0zm5.18,-1.01l-0.26,0.07c-0.32,0.08 -0.14,0.04 -0.27,0.07c-0.62,0.16 -1,0.8 -0.84,1.42c0.16,0.62 0.79,1 1.41,0.84c0.32,-0.08 0.17,-0.04 0.3,-0.08l0.28,-0.07c0.62,-0.18 0.98,-0.82 0.81,-1.44c-0.17,-0.62 -0.81,-0.98 -1.43,-0.81z" fill="#ffffff" id="svg_1"/>
 </g>
</svg>